<svg width="41" height="34" viewBox="0 0 41 34" fill="none" xmlns="http://www.w3.org/2000/svg">
<g clip-path="url(#clip0_553_4974)">
<path d="M36.262 11.4648C34.6321 10.6748 34.2491 8.57732 35.1707 7.1171C36.8356 4.50572 41.0714 5.60653 41.0014 8.83776C40.9822 10.3449 40.099 11.5898 38.5827 11.8085C37.5772 11.9544 37.362 12.4579 37.1609 13.274C35.8161 18.7502 34.4135 24.2126 33.0704 29.6906C32.8063 30.7653 32.2187 31.4998 31.2691 32.0016C29.1984 33.0989 26.9459 33.5243 24.6462 33.7691C20.0432 34.2171 15.3248 34.0973 10.9055 32.6197C9.16537 31.9877 8.03911 30.9546 7.58616 28.9874C6.33923 23.5806 4.8667 18.2259 3.4956 12.8486C3.35919 12.3155 3.21054 11.9735 2.52849 11.8711C-0.719121 11.3849 -0.839791 6.66045 2.2032 5.79752C5.96148 4.83041 7.86947 9.48192 4.73204 11.6228C7.76104 13.9164 10.7516 16.1823 13.8523 18.5297C15.741 14.5727 17.5931 10.6956 19.4748 6.75421C18.38 6.28542 17.4462 5.64993 17.1873 4.50051C17.0282 3.79731 17.0055 2.98994 17.1873 2.2989C17.5913 0.769226 19.0289 -0.100654 20.6745 0.00873215C22.1855 0.109437 23.4132 1.17725 23.735 2.66525C24.0988 4.35466 23.2926 5.68119 21.187 6.77331C23.0635 10.6452 24.94 14.5189 26.8917 18.5436C29.9942 16.1996 33.0336 13.9025 36.262 11.463V11.4648ZM7.97615 25.8655C11.8341 23.4521 16.0978 23.1587 20.3895 23.1448C24.6812 23.1309 28.9239 23.5025 32.8133 25.8256C33.8713 21.6342 34.9154 17.5036 35.9595 13.3712L35.7846 13.2618C32.9987 15.3697 30.2128 17.4758 27.4059 19.5993C27.8063 20.4257 28.1981 21.1376 28.4866 21.8877C28.5688 22.103 28.3502 22.4312 28.2698 22.709C28.0075 22.6065 27.7311 22.5284 27.4898 22.3895C27.3831 22.3287 27.3446 22.1464 27.2817 22.0162C24.9155 17.2848 22.8046 12.4423 20.3038 7.78383C17.9673 12.4649 15.825 17.1893 13.5217 21.8808C13.3853 22.162 12.9586 22.3044 12.6666 22.511C12.6089 22.1325 12.42 21.7158 12.5197 21.3824C12.7033 20.7626 13.0548 20.1913 13.3451 19.5802C10.498 17.4289 7.72607 15.3367 4.95589 13.2445C4.90692 13.2809 4.85621 13.3174 4.80724 13.3538C5.86179 17.5105 6.91635 21.6672 7.97965 25.8655H7.97615ZM20.2041 32.9635C22.0596 32.8003 23.9466 32.7899 25.7619 32.4322C27.5685 32.0762 29.3558 31.4876 31.0557 30.7758C32.1557 30.3139 32.1103 29.3433 31.0784 28.72C30.4401 28.3345 29.7266 28.0255 29.0061 27.8258C23.3608 26.2336 15.1429 25.9506 9.87015 28.7287C8.75439 29.2947 8.77712 30.2063 9.84042 30.8556C10.3563 31.1699 10.93 31.4095 11.5071 31.6022C14.3245 32.5416 17.2311 32.9149 20.2076 32.9652L20.2041 32.9635ZM32.1662 28.0533C32.5072 27.3987 32.1995 26.8899 31.7115 26.5601C31.1187 26.159 30.4646 25.7857 29.7825 25.5877C23.5671 23.7855 17.3325 23.7855 11.1101 25.5547C10.3966 25.7579 9.71101 26.1277 9.08142 26.5288C8.53928 26.8726 8.27171 27.416 8.62498 28.0932C14.9978 24.6015 26.0627 24.5859 32.1662 28.055V28.0533ZM20.3318 5.62736C21.6609 5.63431 22.6525 4.65504 22.642 3.34414C22.5161 0.364672 18.1614 0.448013 18.1142 3.42228C18.1335 4.63941 19.1198 5.62042 20.3318 5.62563V5.62736ZM5.16051 8.75615C5.14127 7.6675 4.23362 6.7872 3.14059 6.79762C2.01258 6.80804 1.08919 7.75084 1.11717 8.85859C1.1469 9.95767 2.04581 10.8206 3.14583 10.8067C4.30532 10.7911 5.178 9.9021 5.15876 8.75615H5.16051ZM37.8202 10.8102C38.9692 10.8137 39.8874 9.91773 39.8856 8.79435C39.8856 7.72827 38.9675 6.81325 37.8885 6.79762C36.7587 6.78199 35.844 7.68834 35.8458 8.82213C35.8475 9.92988 36.7185 10.8067 37.8202 10.8084V10.8102Z" fill="black"/>
<path d="M25.9186 21.1082C25.6685 21.1951 25.4097 21.3652 25.1684 21.3444C24.9253 21.3235 24.6017 21.1725 24.4811 20.9763C24.161 20.4641 23.9337 19.8963 23.6678 19.3494C22.6448 17.2398 21.6217 15.1319 20.5986 13.0224C20.4849 12.788 20.2873 12.5501 20.2891 12.3157C20.2908 11.9997 20.4482 11.6837 20.5392 11.3677C20.7997 11.5326 21.1845 11.6351 21.3017 11.8695C22.7445 14.8316 24.2537 17.7728 25.6073 20.7749C25.7123 20.886 25.8154 20.9971 25.9204 21.11L25.9186 21.1082Z" fill="black"/>
<path d="M34.0613 17.1234C33.5121 19.2886 33.0172 21.3096 32.4646 23.315C32.4139 23.5025 31.9959 23.5894 31.7476 23.7231C31.6374 23.4366 31.3803 23.1171 31.438 22.8688C31.8088 21.2645 32.2477 19.6758 32.6622 18.0818C32.7497 17.7467 32.7566 17.3682 32.9245 17.0817C33.0522 16.863 33.3722 16.6511 33.6153 16.6407C33.7727 16.6338 33.9494 16.9915 34.0613 17.1234Z" fill="black"/>
<path d="M6.87174 15.8784C7.12357 16.026 7.3072 16.1111 7.46635 16.2291C8.8322 17.2553 10.1911 18.2901 11.5587 19.3145C11.9504 19.608 12.2442 19.9761 11.8332 20.3702C11.6881 20.5091 11.1284 20.4101 10.8906 20.24C9.50551 19.2416 8.14665 18.2033 6.81053 17.1424C6.60417 16.9775 6.4835 16.632 6.45377 16.3559C6.43803 16.217 6.71609 16.0451 6.87349 15.8784H6.87174Z" fill="black"/>
<path d="M20.2604 32.1074C17.3625 32.0675 14.4017 31.7167 11.7032 30.6611C11.5021 30.4388 11.4094 30.1211 11.2695 29.845C11.5406 29.7634 11.8379 29.5672 12.0775 29.621C13.4678 29.9283 14.8284 30.3798 16.2275 30.6246C19.3282 31.1663 22.4359 31.076 25.5261 30.4718C25.6975 30.4388 25.8899 30.3451 26.0368 30.3919C26.3061 30.4753 26.5475 30.6437 26.8011 30.7757C26.6139 31.0118 26.4565 31.4233 26.2362 31.458C24.5993 31.7167 22.9518 31.9077 21.3062 32.1039C20.9616 32.1438 20.6084 32.1091 20.2586 32.1091L20.2604 32.1074Z" fill="black"/>
<path d="M29.3719 30.2739C29.3719 30.4007 29.2967 30.517 29.1778 30.5639C28.7528 30.7358 28.3313 30.9303 27.8906 31.0101C27.7245 31.0397 27.289 30.6351 27.3135 30.4754C27.4219 29.7131 28.1564 29.8277 28.6758 29.7201C28.8367 29.6871 29.0449 29.8781 29.2442 30.0239C29.3229 30.083 29.3719 30.1732 29.3736 30.2705V30.2739H29.3719Z" fill="black"/>
</g>
<defs>
<clipPath id="clip0_553_4974">
<rect width="41" height="34" fill="white"/>
</clipPath>
</defs>
</svg>
